<?xml version="1.0" encoding="utf-8"?>
<!-- Generator: Adobe Illustrator 18.1.1, SVG Export Plug-In . SVG Version: 6.00 Build 0)  -->
<svg version="1.1" id="Layer_1" xmlns="http://www.w3.org/2000/svg" xmlns:xlink="http://www.w3.org/1999/xlink" x="0px" y="0px"
	 viewBox="-479 283 48 48" enable-background="new -479 283 48 48" xml:space="preserve">
<circle fill="#FFFFFF" stroke="#000000" stroke-miterlimit="10" cx="-454.7" cy="306.9" r="6.3"/>
<path fill="#FFFFFF" stroke="#000000" stroke-miterlimit="10" d="M-454,296.1c0,0.4-0.3,0.7-0.6,0.7l0,0c-0.3,0-0.6-0.3-0.6-0.7
	v-3.3c0-0.4,0.3-0.7,0.6-0.7l0,0c0.3,0,0.6,0.3,0.6,0.7V296.1z"/>
<path fill="#FFFFFF" stroke="#000000" stroke-miterlimit="10" d="M-454,321.5c0,0.4-0.3,0.7-0.6,0.7l0,0c-0.3,0-0.6-0.3-0.6-0.7
	v-3.3c0-0.4,0.3-0.7,0.6-0.7l0,0c0.3,0,0.6,0.3,0.6,0.7V321.5z"/>
<path fill="#FFFFFF" stroke="#000000" stroke-miterlimit="10" d="M-443.4,307.3c-0.4,0-0.7-0.3-0.7-0.6l0,0c0-0.3,0.3-0.6,0.7-0.6
	h3.4c0.4,0,0.7,0.3,0.7,0.6l0,0c0,0.3-0.3,0.6-0.7,0.6H-443.4z"/>
<path fill="#FFFFFF" stroke="#000000" stroke-miterlimit="10" d="M-468.8,307.3c-0.4,0-0.7-0.3-0.7-0.6l0,0c0-0.3,0.3-0.6,0.7-0.6
	h3.4c0.4,0,0.7,0.3,0.7,0.6l0,0c0,0.3-0.3,0.6-0.7,0.6H-468.8z"/>
<path fill="#FFFFFF" stroke="#000000" stroke-miterlimit="10" d="M-446.5,299.5c-0.3,0.3-0.7,0.3-0.9,0.1l0,0
	c-0.2-0.2-0.2-0.7,0.1-0.9l2.4-2.4c0.3-0.3,0.7-0.3,0.9-0.1l0,0c0.2,0.2,0.2,0.7-0.1,0.9L-446.5,299.5z"/>
<path fill="#FFFFFF" stroke="#000000" stroke-miterlimit="10" d="M-464.4,317.4c-0.3,0.3-0.7,0.3-0.9,0.1l0,0
	c-0.2-0.2-0.2-0.7,0.1-0.9l2.4-2.4c0.3-0.3,0.7-0.3,0.9-0.1l0,0c0.2,0.2,0.2,0.7-0.1,0.9L-464.4,317.4z"/>
<path fill="#FFFFFF" stroke="#000000" stroke-miterlimit="10" d="M-447.4,315.3c-0.3-0.3-0.3-0.7-0.1-0.9l0,0
	c0.2-0.2,0.7-0.2,0.9,0.1l2.4,2.4c0.3,0.3,0.3,0.7,0.1,0.9l0,0c-0.2,0.2-0.7,0.2-0.9-0.1L-447.4,315.3z"/>
<path fill="#FFFFFF" stroke="#000000" stroke-miterlimit="10" d="M-465.3,297.4c-0.3-0.3-0.3-0.7-0.1-0.9l0,0
	c0.2-0.2,0.7-0.2,0.9,0.1l2.4,2.4c0.3,0.3,0.3,0.7,0.1,0.9l0,0c-0.2,0.2-0.7,0.2-0.9-0.1L-465.3,297.4z"/>
</svg>
