<?xml version="1.0" encoding="utf-8"?>
<!-- Generator: Adobe Illustrator 18.1.1, SVG Export Plug-In . SVG Version: 6.00 Build 0)  -->
<svg version="1.1" id="Capa_1" xmlns="http://www.w3.org/2000/svg" xmlns:xlink="http://www.w3.org/1999/xlink" x="0px" y="0px"
	 viewBox="-213 17.7 579.3 579.3" enable-background="new -213 17.7 579.3 579.3" xml:space="preserve">
<g>
	<g>
		<path fill="#FFFFFF" stroke="#000000" stroke-miterlimit="10" d="M76.7,126.9c21.7,0,42.5,3.8,61.7,10.9
			c1-17.7-1.5-49.8-27.9-69.4c-38-28.1-10.7-50.7-10.7-50.7s-70,15-60.6,113.1C51.3,128.3,63.8,126.9,76.7,126.9z"/>
		<path fill="#FFFFFF" stroke="#000000" stroke-miterlimit="10" d="M315.6,273.5c-19.6-26.4-51.7-28.9-69.4-27.9
			c7,19.3,10.9,40.1,10.9,61.7c0,12.8-1.4,25.4-3.9,37.4c98.2,9.5,113.1-60.6,113.1-60.6S343.8,311.5,315.6,273.5z"/>
		<path fill="#FFFFFF" stroke="#000000" stroke-miterlimit="10" d="M53.5,597c0,0,70-15,60.6-113.1c-12.1,2.6-24.6,3.9-37.4,3.9
			c-21.7,0-42.5-3.8-61.7-10.9c-1,17.7,1.5,49.8,27.9,69.4C80.8,574.5,53.5,597,53.5,597z"/>
		<path fill="#FFFFFF" stroke="#000000" stroke-miterlimit="10" d="M-162.3,341.2c19.6,26.4,51.7,28.9,69.4,27.9
			c-7-19.3-10.9-40.1-10.9-61.7c0-12.8,1.4-25.4,3.9-37.4C-198,260.4-213,330.5-213,330.5S-190.5,303.2-162.3,341.2z"/>
		<path fill="#FFFFFF" stroke="#000000" stroke-miterlimit="10" d="M227.9,209.1c76.2-62.7,37.2-122.9,37.2-122.9
			s3.3,35.2-43.4,28.2c-32.6-4.8-57,16.2-68.9,29.4C183.5,158.2,209.5,180.9,227.9,209.1z"/>
		<path fill="#FFFFFF" stroke="#000000" stroke-miterlimit="10" d="M-74.6,209.1c18.4-28.2,44.3-50.9,75-65.2
			c-11.8-13.2-36.3-34.2-68.8-29.4c-46.7,6.9-43.4-28.2-43.4-28.2S-150.8,146.3-74.6,209.1z"/>
		<path fill="#FFFFFF" stroke="#000000" stroke-miterlimit="10" d="M-68.4,500.3c32.6,4.8,57-16.2,68.9-29.4
			c-30.7-14.4-56.7-37.1-75-65.2c-76.2,62.7-37.2,122.9-37.2,122.9S-115.2,493.3-68.4,500.3z"/>
		<path fill="#FFFFFF" stroke="#000000" stroke-miterlimit="10" d="M227.9,405.6c-18.4,28.2-44.3,50.9-75,65.2
			c11.8,13.2,36.3,34.2,68.9,29.4c46.7-6.9,43.4,28.2,43.4,28.2S304.1,468.4,227.9,405.6z"/>
		<path fill="#FFFFFF" stroke="#000000" stroke-miterlimit="10" d="M214.9,395.8c10.3-16,17.9-34,22.1-53.2
			c2.5-11.4,3.8-23.1,3.8-35.2c0-16.9-2.6-33.3-7.3-48.6c-4.4-14.2-10.7-27.5-18.6-39.8c-15.3-23.8-36.5-43.4-61.6-56.7
			c-8.9-4.7-18.2-8.6-28-11.6c-15.4-4.8-31.7-7.3-48.6-7.3c-12.1,0-23.9,1.3-35.2,3.8c-14.6,3.2-28.5,8.3-41.4,15.1
			c-25.1,13.3-46.4,32.9-61.6,56.7c-10.3,16-17.9,34-22.1,53.2c-2.5,11.4-3.8,23.1-3.8,35.2c0,16.9,2.6,33.3,7.3,48.6
			c4.4,14.2,10.7,27.5,18.6,39.8c15.3,23.8,36.5,43.4,61.6,56.7c8.9,4.7,18.2,8.6,28,11.6c15.4,4.8,31.7,7.3,48.6,7.3
			c12.1,0,23.9-1.3,35.2-3.8c14.6-3.2,28.5-8.3,41.4-15.1C178.4,439.2,199.6,419.6,214.9,395.8z"/>
	</g>
</g>
</svg>
